<svg width="108" height="32" viewBox="0 0 108 32" fill="none" xmlns="http://www.w3.org/2000/svg">
<path d="M56.1046 12.1719C56.0115 12.3374 55.915 12.4597 55.8151 12.5388C55.722 12.6107 55.5989 12.6467 55.4458 12.6467C55.2994 12.6467 55.1397 12.5927 54.9667 12.4848C54.8003 12.3697 54.604 12.2475 54.3778 12.118C54.1515 11.9885 53.892 11.8699 53.5992 11.762C53.3064 11.6469 52.9637 11.5893 52.5711 11.5893C51.8791 11.5893 51.36 11.7584 51.014 12.0964C50.668 12.4273 50.4949 12.8624 50.4949 13.4019C50.4949 13.7471 50.5881 14.0348 50.7744 14.265C50.9674 14.488 51.2169 14.6822 51.5231 14.8476C51.8358 15.013 52.1885 15.1605 52.5811 15.29C52.9737 15.4194 53.3763 15.5633 53.7889 15.7215C54.2015 15.8726 54.604 16.0524 54.9967 16.261C55.3893 16.4695 55.7386 16.7321 56.0447 17.0486C56.3575 17.365 56.607 17.7534 56.7933 18.2138C56.9863 18.6669 57.0828 19.2207 57.0828 19.8753C57.0828 20.5873 56.9664 21.2562 56.7335 21.882C56.5072 22.5006 56.1778 23.0436 55.7453 23.5111C55.3127 23.9715 54.7771 24.3347 54.1382 24.6008C53.5061 24.8669 52.7874 25 51.9822 25C51.5231 25 51.0639 24.9497 50.6047 24.849C50.1522 24.7483 49.713 24.608 49.2872 24.4282C48.8679 24.2484 48.472 24.0326 48.0994 23.7809C47.7267 23.5291 47.4006 23.2486 47.1212 22.9393L47.9995 21.4073C48.0727 21.2922 48.1692 21.1987 48.289 21.1268C48.4088 21.0477 48.5352 21.0081 48.6683 21.0081C48.848 21.0081 49.0376 21.08 49.2373 21.2239C49.4369 21.3677 49.6665 21.526 49.926 21.6986C50.1855 21.8712 50.485 22.0294 50.8243 22.1733C51.1704 22.3172 51.5829 22.3891 52.0621 22.3891C52.7608 22.3891 53.2998 22.2165 53.6791 21.8712C54.065 21.526 54.258 21.0117 54.258 20.3284C54.258 19.9328 54.1615 19.6127 53.9685 19.3682C53.7822 19.1236 53.536 18.9186 53.2299 18.7532C52.9238 18.5878 52.5744 18.4475 52.1818 18.3324C51.7892 18.2102 51.3866 18.0771 50.9741 17.9332C50.5615 17.7894 50.1589 17.6168 49.7663 17.4154C49.3737 17.214 49.0243 16.9479 48.7182 16.617C48.4121 16.2861 48.1626 15.8762 47.9696 15.3871C47.7833 14.898 47.6901 14.2902 47.6901 13.5637C47.6901 12.9811 47.7966 12.4165 48.0095 11.8699C48.2225 11.3232 48.5352 10.8377 48.9478 10.4134C49.3604 9.98899 49.8661 9.64734 50.465 9.3884C51.0705 9.12947 51.7626 9 52.5412 9C53.4129 9 54.2181 9.14745 54.9567 9.44235C55.702 9.73005 56.3309 10.1328 56.8433 10.6507L56.1046 12.1719Z" fill="white"/>
<path d="M74.8457 16.9946C74.8457 18.1382 74.6661 19.1991 74.3067 20.1773C73.954 21.1555 73.4516 22.0007 72.7995 22.7127C72.154 23.4248 71.3755 23.9858 70.4638 24.3958C69.5521 24.7986 68.5407 25 67.4294 25C66.3181 25 65.3066 24.7986 64.395 24.3958C63.4833 23.9858 62.7014 23.4248 62.0493 22.7127C61.3972 22.0007 60.8914 21.1555 60.5321 20.1773C60.1794 19.1991 60.0031 18.1382 60.0031 16.9946C60.0031 15.851 60.1794 14.7937 60.5321 13.8227C60.8914 12.8445 61.3972 11.9993 62.0493 11.2873C62.7014 10.5752 63.4833 10.0178 64.395 9.61497C65.3066 9.20499 66.3181 9 67.4294 9C68.5407 9 69.5521 9.20499 70.4638 9.61497C71.3755 10.0178 72.154 10.5788 72.7995 11.298C73.4516 12.0101 73.954 12.8552 74.3067 13.8334C74.6661 14.8045 74.8457 15.8582 74.8457 16.9946ZM71.7814 16.9946C71.7814 16.1746 71.6816 15.441 71.4819 14.7937C71.2823 14.1391 70.9928 13.5853 70.6135 13.1322C70.2409 12.6718 69.7851 12.323 69.246 12.0856C68.7137 11.8411 68.1081 11.7188 67.4294 11.7188C66.7506 11.7188 66.1418 11.8411 65.6028 12.0856C65.0637 12.323 64.6046 12.6718 64.2253 13.1322C63.8526 13.5853 63.5665 14.1391 63.3669 14.7937C63.1672 15.441 63.0674 16.1746 63.0674 16.9946C63.0674 17.8218 63.1672 18.5626 63.3669 19.2171C63.5665 19.8645 63.8526 20.4147 64.2253 20.8678C64.6046 21.321 65.0637 21.6698 65.6028 21.9144C66.1418 22.1517 66.7506 22.2704 67.4294 22.2704C68.1081 22.2704 68.7137 22.1517 69.246 21.9144C69.7851 21.6698 70.2409 21.321 70.6135 20.8678C70.9928 20.4147 71.2823 19.8645 71.4819 19.2171C71.6816 18.5626 71.7814 17.8218 71.7814 16.9946Z" fill="white"/>
<path d="M87.2239 22.1949V24.8274H78.6297V9.17262H81.6242V22.1949H87.2239Z" fill="white"/>
<path d="M93.6712 24.8274H90.6568V9.17262H93.6712V24.8274Z" fill="white"/>
<path d="M106.143 12.1719C106.05 12.3374 105.953 12.4597 105.853 12.5388C105.76 12.6107 105.637 12.6467 105.484 12.6467C105.338 12.6467 105.178 12.5927 105.005 12.4848C104.839 12.3697 104.642 12.2475 104.416 12.118C104.19 11.9885 103.93 11.8699 103.638 11.762C103.345 11.6469 103.002 11.5893 102.609 11.5893C101.917 11.5893 101.398 11.7584 101.052 12.0964C100.706 12.4273 100.533 12.8624 100.533 13.4019C100.533 13.7471 100.626 14.0348 100.813 14.265C101.006 14.488 101.255 14.6822 101.561 14.8476C101.874 15.013 102.227 15.1605 102.619 15.29C103.012 15.4194 103.415 15.5633 103.827 15.7215C104.24 15.8726 104.642 16.0524 105.035 16.261C105.428 16.4695 105.777 16.7321 106.083 17.0486C106.396 17.365 106.645 17.7534 106.832 18.2138C107.025 18.6669 107.121 19.2207 107.121 19.8753C107.121 20.5873 107.005 21.2562 106.772 21.882C106.546 22.5006 106.216 23.0436 105.784 23.5111C105.351 23.9715 104.815 24.3347 104.177 24.6008C103.544 24.8669 102.826 25 102.021 25C101.561 25 101.102 24.9497 100.643 24.849C100.191 24.7483 99.7514 24.608 99.3255 24.4282C98.9063 24.2484 98.5103 24.0326 98.1377 23.7809C97.765 23.5291 97.439 23.2486 97.1595 22.9393L98.0379 21.4073C98.1111 21.2922 98.2076 21.1987 98.3273 21.1268C98.4471 21.0477 98.5736 21.0081 98.7066 21.0081C98.8863 21.0081 99.076 21.08 99.2756 21.2239C99.4752 21.3677 99.7048 21.526 99.9643 21.6986C100.224 21.8712 100.523 22.0294 100.863 22.1733C101.209 22.3172 101.621 22.3891 102.1 22.3891C102.799 22.3891 103.338 22.2165 103.717 21.8712C104.103 21.526 104.296 21.0117 104.296 20.3284C104.296 19.9328 104.2 19.6127 104.007 19.3682C103.821 19.1236 103.574 18.9186 103.268 18.7532C102.962 18.5878 102.613 18.4475 102.22 18.3324C101.828 18.2102 101.425 18.0771 101.012 17.9332C100.6 17.7894 100.197 17.6168 99.8046 17.4154C99.412 17.214 99.0627 16.9479 98.7566 16.617C98.4505 16.2861 98.2009 15.8762 98.0079 15.3871C97.8216 14.898 97.7284 14.2902 97.7284 13.5637C97.7284 12.9811 97.8349 12.4165 98.0479 11.8699C98.2608 11.3232 98.5736 10.8377 98.9861 10.4134C99.3987 9.98899 99.9044 9.64734 100.503 9.3884C101.109 9.12947 101.801 9 102.58 9C103.451 9 104.256 9.14745 104.995 9.44235C105.74 9.73005 106.369 10.1328 106.882 10.6507L106.143 12.1719Z" fill="white"/>
<path fill-rule="evenodd" clip-rule="evenodd" d="M21.0937 4.75L23.5201 7.17431L30.7006 0H25.7852L21.0937 4.75ZM32.0274 8.11181L28.6001 4.75L32.0274 1.32568V8.11181ZM6.07855 19.7489L12.2572 13.5755L14.6832 15.9994L8.50457 22.1728L6.07855 19.7489ZM21.0898 19.7505L27.2684 13.5771L29.6944 16.0011L23.5158 22.1745L21.0898 19.7505ZM16.0097 17.326L13.5837 19.7499L19.7624 25.9233L22.1884 23.4994L16.0097 17.326ZM12.2605 21.0757L18.4401 27.25L16.0137 29.7368L9.83409 23.5L12.2605 21.0757ZM31.0891 17.3257L32.0274 18.2632V23.1118L28.6001 19.75L31.0891 17.3257ZM2.32615 15.9989L8.50483 9.8255L10.9308 12.2494L4.75218 18.4228L2.32615 15.9989ZM23.516 9.82713L17.3374 16.0005L19.7634 18.4245L25.9421 12.2511L23.516 9.82713ZM27.2733 6.07568L32.0274 10.7632V15.6118L24.8469 8.5L27.2733 6.07568ZM13.5873 4.75L19.7669 10.9243L22.1933 8.5L16.0137 2.26318L13.5873 4.75ZM12.2582 6.07672L9.83214 8.50067L16.0108 14.6741L18.4368 12.2501L12.2582 6.07672ZM25.9465 27.25L23.5201 24.8257L16.4022 32H21.255L25.9465 27.25ZM12.2605 28.5757L14.6869 31.0625L13.7486 32H8.89579L12.2605 28.5757ZM10.9337 27.25L8.50728 24.8257L1.32683 32H6.24215L10.9337 27.25ZM24.8469 23.5L27.2733 21.0757L32.0274 25.7632V30.6743L24.8469 23.5ZM0 23.8882V30.6743L3.42724 27.25L0 23.8882ZM23.9086 32L27.2733 28.5757L30.7006 32H23.9086ZM17.3405 0.9375L19.7669 3.42431L23.1316 0H18.2788L17.3405 0.9375ZM8.11876 0L4.75407 3.42431L1.32683 0H8.11876ZM4.75406 25.9243L7.18045 23.5L0 16.3882V21.2368L4.75406 25.9243ZM8.50727 7.17431L6.08088 4.75L10.7724 0H15.6252L8.50727 7.17431ZM4.75406 10.9243L7.18045 8.5L0 1.32568V6.23681L4.75406 10.9243ZM3.42724 12.25L0.938302 14.6743L0 13.7368V8.88818L3.42724 12.25Z" fill="white"/>
</svg>
